# xmcd CD database file
#
# Track frame offsets:
#	187
#	39904
#	54654
#	74677
#	96447
#	120724
#	189454
#	208809
#
# Disc length: 2967 seconds
#
# Revision: 4
# Processed by: cddbd v1.5.2PL0 Copyright (c) Steve Scherf et al.
# Submitted via: CDex 1.70beta3
#
DISCID=780b9508
DTITLE=Blind Faith - Blind Faith
DYEAR=1900
DGENRE=Rock
TTITLE0=Had to Cry Today
TTITLE1=Can't Find My Way Home
TTITLE2=Well All Right
TTITLE3=Presence of the Lord
TTITLE4=Sea of Joy
TTITLE5=Do What You Like
TTITLE6=Exchange And Mart
TTITLE7=Spending All My Days
EXTD=
EXTT0=
EXTT1=
EXTT2=
EXTT3=
EXTT4=
EXTT5=
EXTT6=
EXTT7=
PLAYORDER=
